<svg width="32" height="32" viewBox="0 0 32 32" fill="none" xmlns="http://www.w3.org/2000/svg">
<path fill-rule="evenodd" clip-rule="evenodd" d="M0 26C0 27.6569 1.34315 29 3 29H29C30.6569 29 32 27.6569 32 26L32 6.00342V6C32 5.79289 31.979 5.59069 31.939 5.3954C31.6593 4.02835 30.4497 3 29 3L3.00394 3L3 3C1.75736 3 0.691179 3.75552 0.235755 4.83227C0.0839466 5.19118 0 5.58579 0 6V26ZM6 9.00001L6 23H10.7586C10.8635 22.8456 10.9844 22.6987 11.1213 22.5618L20.5618 13.1213C21.7334 11.9498 23.6329 11.9498 24.8045 13.1213C25.976 14.2929 25.976 16.1924 24.8045 17.364L19.1684 23L26 23L26 9L6 9.00001ZM11 17C12.6569 17 14 15.6569 14 14C14 12.3431 12.6569 11 11 11C9.34315 11 8 12.3431 8 14C8 15.6569 9.34315 17 11 17Z" fill="#F0F6FC"/>
</svg>
