<svg width="16" height="16" viewBox="0 0 16 16" fill="none" xmlns="http://www.w3.org/2000/svg">
<path d="M8.00001 10.6667C8.35363 10.6667 8.69277 10.8071 8.94281 11.0572C9.19286 11.3072 9.33334 11.6464 9.33334 12C9.33334 12.3536 9.19286 12.6927 8.94281 12.9428C8.69277 13.1928 8.35363 13.3333 8.00001 13.3333C7.64638 13.3333 7.30724 13.1928 7.0572 12.9428C6.80715 12.6927 6.66667 12.3536 6.66667 12C6.66667 11.6464 6.80715 11.3072 7.0572 11.0572C7.30724 10.8071 7.64638 10.6667 8.00001 10.6667ZM8.00001 6.66666C8.35363 6.66666 8.69277 6.80713 8.94281 7.05718C9.19286 7.30723 9.33334 7.64637 9.33334 7.99999C9.33334 8.35361 9.19286 8.69275 8.94281 8.9428C8.69277 9.19285 8.35363 9.33332 8.00001 9.33332C7.64638 9.33332 7.30724 9.19285 7.0572 8.9428C6.80715 8.69275 6.66667 8.35361 6.66667 7.99999C6.66667 7.64637 6.80715 7.30723 7.0572 7.05718C7.30724 6.80713 7.64638 6.66666 8.00001 6.66666ZM8.00001 2.66666C8.35363 2.66666 8.69277 2.80713 8.94281 3.05718C9.19286 3.30723 9.33334 3.64637 9.33334 3.99999C9.33334 4.35361 9.19286 4.69275 8.94281 4.9428C8.69277 5.19285 8.35363 5.33332 8.00001 5.33332C7.64638 5.33332 7.30724 5.19285 7.0572 4.9428C6.80715 4.69275 6.66667 4.35361 6.66667 3.99999C6.66667 3.64637 6.80715 3.30723 7.0572 3.05718C7.30724 2.80713 7.64638 2.66666 8.00001 2.66666Z" fill="#F0F6FC" fill-opacity="0.5"/>
</svg>
