<svg width="32" height="32" viewBox="0 0 32 32" fill="none" xmlns="http://www.w3.org/2000/svg">
<path fill-rule="evenodd" clip-rule="evenodd" d="M32 6.00342L32 26C32 26.1036 31.9948 26.2059 31.9845 26.3067C31.8309 27.8195 30.5533 29 29 29H3C1.34315 29 0 27.6569 0 26V6C0 4.55026 1.02835 3.34069 2.39539 3.06095C2.59069 3.02099 2.79289 3 3 3L29 3C30.6569 3 32 4.34315 32 6C32 6.00114 32 6.00228 32 6.00342ZM6 9L6 23L26 23L26 9L6 9Z" fill="#0D1117"/>
<path d="M20.5 16.866C21.1667 16.4811 21.1667 15.5189 20.5 15.134L14.5 11.6699C13.8333 11.285 13 11.7661 13 12.5359L13 19.4641C13 20.2339 13.8333 20.715 14.5 20.3301L20.5 16.866Z" fill="#F0F6FC"/>
</svg>
